<svg width="320" height="260" viewBox="0 0 320 260" fill="none" xmlns="http://www.w3.org/2000/svg">
<g clip-path="url(#clip0)">
<path d="M232.074 125.941C232.22 124.476 232.318 123.011 232.465 121.497C232.367 123.011 232.22 124.476 232.074 125.941Z" fill="white"/>
<path d="M235.35 86.1955C235.448 84.9748 235.546 83.7541 235.595 82.5334C235.546 83.7541 235.448 84.926 235.35 86.1955Z" fill="white"/>
<path d="M233.444 110.609C233.542 109.144 233.688 107.728 233.786 106.312C233.688 107.728 233.542 109.144 233.444 110.609Z" fill="white"/>
<path d="M228.848 158.118C229.093 156.116 229.288 154.065 229.533 151.965C229.288 154.065 229.093 156.116 228.848 158.118Z" fill="white"/>
<path d="M234.958 91.9083C235.105 89.9552 235.252 88.051 235.398 86.1956C235.252 88.051 235.105 89.9552 234.958 91.9083Z" fill="white"/>
<path d="M234.322 100.014C234.42 98.6464 234.517 97.2793 234.664 95.9121C234.517 97.2304 234.42 98.5976 234.322 100.014Z" fill="white"/>
<path d="M261.162 84.0961C261.847 69.6922 260.38 59.6339 260.38 59.6339H260.429L258.865 58.9504L256.86 59.3898L243.27 62.4171L238.919 56.0696L237.061 55.8743L238.626 56.0696C238.821 63.6377 242.928 109.388 234.812 167.785H261.113C257.642 141.516 259.598 112.904 260.38 91.3225L261.162 84.0961Z" fill="white"/>
<path d="M229.972 147.766C230.118 146.35 230.265 144.934 230.412 143.469C230.265 144.934 230.118 146.35 229.972 147.766Z" fill="white"/>
<path d="M231.047 136.975C231.243 134.778 231.487 132.581 231.683 130.384C231.487 132.581 231.243 134.778 231.047 136.975Z" fill="white"/>
<path d="M230.411 143.518C230.557 142.102 230.704 140.637 230.851 139.173C230.704 140.589 230.557 142.053 230.411 143.518Z" fill="white"/>
<path d="M233.052 114.954C233.199 113.49 233.297 112.025 233.443 110.609C233.297 112.025 233.199 113.49 233.052 114.954Z" fill="white"/>
<path d="M232.465 121.546C232.661 119.349 232.856 117.152 233.052 114.955C232.856 117.103 232.661 119.3 232.465 121.546Z" fill="white"/>
<path d="M238.674 56.0696L237.11 55.8743C237.159 58.6574 236.621 68.8134 235.643 82.4848C235.545 83.6567 235.448 84.8773 235.399 86.1468C235.252 88.0023 235.105 89.9065 234.959 91.8596C234.861 93.1779 234.763 94.4962 234.665 95.8634C234.568 97.2305 234.47 98.5488 234.323 99.9648C234.177 102.016 233.981 104.115 233.834 106.263C233.737 107.679 233.59 109.095 233.492 110.56C233.394 112.025 233.248 113.441 233.101 114.906C232.906 117.103 232.71 119.3 232.514 121.497C232.368 122.962 232.27 124.427 232.123 125.941C231.977 127.405 231.83 128.87 231.732 130.384C231.537 132.581 231.292 134.778 231.097 136.975C231.048 137.708 230.95 138.44 230.901 139.173C230.755 140.637 230.608 142.053 230.461 143.518C230.315 144.934 230.168 146.399 230.021 147.815C229.875 149.231 229.728 150.647 229.581 152.014C229.337 154.114 229.141 156.164 228.897 158.166C228.506 161.535 228.164 164.758 227.772 167.834H234.91C242.976 109.437 238.87 63.6377 238.674 56.0696Z" fill="white"/>
<path d="M212.471 167.785L216.578 341.803H232.955L242.096 190.441C242.194 188.683 243.661 187.316 245.421 187.316C247.181 187.316 248.647 188.683 248.745 190.489L257.056 341.803H273.433L278.468 167.785H212.471Z" fill="#21252B"/>
<g opacity="0.5">
<path opacity="0.5" d="M212.471 167.785L211.933 172.961H278.272L278.467 167.785H212.471Z" fill="black"/>
</g>
<path d="M237.061 37.0761L237.207 57.1927C237.207 57.681 237.354 58.1693 237.647 58.5599L237.843 58.9017C242.731 66.1769 252.802 67.5928 259.548 62.0266C260.233 61.4407 260.575 60.5618 260.428 59.6829L256.762 35.4648L237.061 37.0761Z" fill="#FCBF9D"/>
<path d="M258.913 27.1152C258.913 27.1152 262.922 53.5793 248.305 54.6535C234.03 55.7277 233.59 28.9706 233.59 28.9706L233.199 21.3048L251.58 18.0823L256.224 20.4748L258.913 27.1152Z" fill="#FCBF9D"/>
<path opacity="0.15" d="M259.256 52.4563L258.181 45.1812C256.861 49.8685 254.123 53.7747 249.332 54.5559H249.381C249.039 54.6047 248.697 54.6535 248.355 54.7024C244.542 54.9953 241.364 53.2376 238.969 49.4779C238.871 49.3314 238.675 49.2826 238.529 49.3803C238.382 49.4779 238.333 49.6732 238.431 49.8197C240.973 53.8235 244.346 55.6789 248.404 55.3859C249.284 55.3371 250.115 55.1418 250.897 54.8977C253.488 55.1906 256.47 54.5559 259.256 52.4563Z" fill="black"/>
<path d="M255.441 21.2073C255.441 21.2073 260.086 18.1312 262.285 23.4045C264.143 27.8477 261.014 32.6816 261.014 32.6816L258.326 32.3886C257.201 32.3398 256.419 31.8027 256.321 30.7285L255.441 21.2073Z" fill="#21252B"/>
<path d="M258.766 17.9847C259.158 23.0139 254.856 24.3322 253.096 24.4786L238.674 25.6993C237.501 25.797 236.621 26.8223 236.67 27.9942L236.914 32.5839C236.963 33.2186 236.523 33.7557 235.888 33.8534L235.008 33.951L234.03 35.1717C228.359 33.8045 226.013 17.7406 236.425 14.518C237.501 14.1762 238.528 13.3462 239.016 12.3208C240.532 9.19588 246.74 8.36583 249.869 11.8814C250.554 12.6626 251.336 12.9555 252.362 12.9555C256.127 12.8579 258.571 15.2016 258.766 17.9847Z" fill="#21252B"/>
<path d="M235.056 35.5135C234.861 33.6581 232.661 32.6815 231.194 33.9022L231.145 33.951C228.652 36.0994 230.265 42.8375 235.74 42.2516L235.056 35.5135Z" fill="#FCBF9D"/>
<path d="M262.285 31.949L262.236 31.9002C260.623 30.9237 258.618 32.1932 258.667 34.0486L258.961 40.4937C264.485 40.2984 265.023 33.7068 262.285 31.949Z" fill="#FCBF9D"/>
<path d="M235.74 36.3436C235.789 36.6854 235.495 36.9784 235.153 37.0272C234.811 37.076 234.469 36.8319 234.42 36.5389L233.784 32.1934L235.593 32.2422L235.74 36.3436Z" fill="#21252B"/>
<path d="M259.793 34.5858C259.842 34.9276 259.549 35.2206 259.207 35.2694C258.864 35.3182 258.522 35.0741 258.473 34.7811L257.838 30.4355L259.647 30.4844L259.793 34.5858Z" fill="#21252B"/>
<path d="M242.34 39.2731C243.044 39.2731 243.611 38.7048 243.611 38.0036C243.611 37.3025 243.044 36.7341 242.34 36.7341C241.636 36.7341 241.069 37.3025 241.069 38.0036C241.069 38.7048 241.636 39.2731 242.34 39.2731Z" fill="#21252B"/>
<path d="M241.754 38.1501C241.915 38.1501 242.047 38.0193 242.047 37.8572C242.047 37.6956 241.915 37.5642 241.754 37.5642C241.592 37.5642 241.46 37.6956 241.46 37.8572C241.46 38.0193 241.592 38.1501 241.754 38.1501Z" fill="white"/>
<path d="M252.117 38.5407C252.821 38.5407 253.388 37.9724 253.388 37.2712C253.388 36.5701 252.821 36.0017 252.117 36.0017C251.413 36.0017 250.846 36.5701 250.846 37.2712C250.846 37.9724 251.413 38.5407 252.117 38.5407Z" fill="#21252B"/>
<path d="M251.531 37.4665C251.692 37.4665 251.824 37.3352 251.824 37.1736C251.824 37.012 251.692 36.8806 251.531 36.8806C251.369 36.8806 251.237 37.012 251.237 37.1736C251.237 37.3352 251.369 37.4665 251.531 37.4665Z" fill="white"/>
<g opacity="0.3">
<path opacity="0.3" d="M247.864 44.0094L248.89 43.9118C249.086 43.9118 249.233 43.7165 249.233 43.5212C249.233 43.3259 249.037 43.1794 248.842 43.1794L247.815 43.277C247.375 43.3259 247.033 42.9841 246.984 42.5446C246.935 42.1052 247.277 41.7634 247.717 41.7146C247.913 41.7146 248.059 41.5193 248.059 41.324C248.059 41.1287 247.864 40.9822 247.668 40.9822C246.837 41.031 246.202 41.7634 246.299 42.5935C246.299 43.4723 247.033 44.0583 247.864 44.0094Z" fill="black"/>
</g>
<path d="M255.636 33.9024L250.112 34.1954L249.379 34.2442L244.539 34.5372H244.49L238.282 34.879C237.255 34.9278 236.522 35.8067 236.571 36.8321L236.668 38.248C236.815 40.9823 239.162 43.0819 241.899 42.9354C244.637 42.7889 246.739 40.4452 246.592 37.7109L246.495 36.295C246.495 35.9044 246.299 35.5137 246.055 35.2208L247.961 35.1231C247.766 35.4649 247.619 35.8067 247.668 36.2461L247.766 37.6621C247.912 40.3964 250.259 42.496 252.996 42.3495C255.734 42.203 257.836 39.8593 257.69 37.125L257.592 35.709C257.543 34.586 256.663 33.8536 255.636 33.9024ZM245.761 36.295L245.859 37.7109C246.006 40.0546 244.197 42.0565 241.899 42.1542C239.553 42.3007 237.548 40.4941 237.451 38.1992L237.353 36.7832C237.304 36.1973 237.793 35.6602 238.379 35.6114L244.588 35.2696H244.637C245.224 35.2208 245.761 35.6602 245.761 36.295ZM256.956 37.0762C257.103 39.4199 255.294 41.4218 252.996 41.5194C250.65 41.6659 248.646 39.8593 248.548 37.5645L248.45 36.1485C248.401 35.5626 248.89 35.0255 249.477 34.9766L250.21 34.9278L255.734 34.6348C256.321 34.586 256.858 35.0743 256.907 35.6602L256.956 37.0762Z" fill="#21252B"/>
<path d="M244.735 46.0112L250.944 45.5718C251.091 45.5718 251.237 45.7182 251.188 45.8647C250.308 49.0385 245.958 49.3803 244.589 46.4018V46.353C244.491 46.2065 244.589 46.0112 244.735 46.0112Z" fill="white"/>
<g opacity="0.3">
<path opacity="0.3" d="M233.688 39.0288C233.492 39.0288 233.346 38.8823 233.297 38.687L233.199 37.9058C233.101 37.0757 232.857 36.4898 232.515 36.1969C232.221 35.9527 231.928 36.0016 231.928 36.0016C231.732 36.0504 231.537 35.9039 231.488 35.7086C231.439 35.5133 231.586 35.318 231.781 35.2692C231.83 35.2692 232.368 35.1715 232.955 35.5621C233.492 35.9527 233.835 36.734 233.932 37.7593L234.03 38.5405C234.03 38.7847 233.883 38.98 233.688 39.0288Z" fill="black"/>
</g>
<g opacity="0.3">
<path opacity="0.3" d="M260.574 37.0272C260.77 37.0272 260.917 36.8319 260.917 36.6366V35.8554C260.868 35.0253 261.014 34.4394 261.357 34.0976C261.601 33.8047 261.894 33.8047 261.943 33.8047C262.139 33.8047 262.285 33.6582 262.334 33.4629C262.334 33.2676 262.188 33.1211 261.992 33.0723C261.943 33.0723 261.357 33.0723 260.917 33.5605C260.428 34.0488 260.232 34.83 260.281 35.9042V36.6854C260.183 36.8808 260.33 37.0272 260.574 37.0272Z" fill="black"/>
</g>
<path d="M295.625 82.4361C294.452 77.1628 290.835 72.7684 285.897 70.62L260.427 59.5852H260.378C260.378 59.5852 260.427 59.8293 260.378 60.3664C260.378 60.5617 260.281 60.8547 260.232 61.1477C259.938 64.4191 259.303 72.4755 258.814 83.3638C258.716 85.5122 258.618 87.8071 258.521 90.1996C257.787 110.707 257.69 154.504 260.623 181.359C260.867 183.703 262.872 185.412 265.169 185.412H278.368L279.151 148.45L279.933 110.951L280.568 113.246L301.198 108.412L295.625 82.4361Z" fill="#007AD0"/>
<g opacity="0.15">
<path opacity="0.15" d="M287.511 78.725L294.795 110.072L301.395 108.509L295.675 82.4359C294.502 77.1626 290.884 72.7682 285.946 70.6198L280.129 68.0808C283.844 70.5221 286.533 74.3306 287.511 78.725Z" fill="black"/>
<path opacity="0.15" d="M274.312 94.3009L268.103 185.558H278.467L280.08 111.097L275.338 94.2032C275.191 93.6173 274.36 93.715 274.312 94.3009Z" fill="black"/>
</g>
<path d="M237.11 55.9231L220.293 54.0189C214.182 53.3353 207.973 54.4583 202.547 57.2903L179.815 68.9599L194.823 84.8774L208.658 81.8501L209.44 87.9046C212.667 112.22 213.742 136.78 212.618 161.34L211.542 185.607H222.297C225.133 185.607 227.577 183.654 228.163 180.871C237.501 136.829 237.305 63.4424 237.11 55.9231Z" fill="#007AD0"/>
<path d="M305.55 127.601L301.394 108.51L280.764 113.344L284.871 125.404L250.357 133.07L248.45 133.46C247.815 133.607 247.228 133.656 246.788 133.216L246.055 132.484C245.37 131.947 244.588 131.507 243.708 131.263C241.655 130.677 239.944 129.261 238.917 127.455L237.255 124.525C237.157 124.378 237.011 124.33 236.864 124.427L236.571 124.525C235.349 124.964 234.762 126.283 235.104 127.503L236.375 131.507C236.522 131.947 236.278 132.435 235.838 132.581L227.722 135.902C226.011 136.536 226.598 138.88 228.162 138.489C228.993 138.294 229.189 138.245 229.189 138.245L227.576 139.075C225.767 139.954 226.598 142.396 228.162 142.054C229.678 141.712 231.78 141.175 231.78 141.175L229.776 141.956C228.309 142.64 228.896 145.179 230.9 144.69C232.073 144.397 233.931 143.812 233.931 143.812L232.709 144.397C231.144 144.886 231.682 147.327 233.149 147.034C234.42 146.79 246.348 143.86 252.508 142.737L298.217 137.757C303.203 137.318 306.625 132.533 305.55 127.601Z" fill="#FCBF9D"/>
<path d="M179.765 68.9109L156.886 80.9223C149.26 84.9261 152.095 96.4492 160.748 96.4492H204.404L212.861 87.5627L194.186 84.9261L195.262 84.6819" fill="#FCBF9D"/>
<path d="M205.089 90.2484L210.808 87.3188L224.301 89.2231C225.425 89.4184 226.452 89.9555 227.185 90.7855L230.167 94.4964C230.901 95.3264 231.439 96.3029 231.634 97.426L233.052 103.334C233.149 104.018 233.052 104.652 232.416 104.799C231.781 104.945 231.194 104.652 230.95 104.018L228.799 97.9631L224.985 93.764L228.456 99.2814L230.412 106.947C230.559 107.582 230.216 108.265 229.63 108.51C228.896 108.803 228.065 108.412 227.821 107.68C227.185 105.678 226.159 102.26 226.159 102.26L222.052 95.8635L226.159 102.26L227.968 106.117C228.261 106.703 228.016 107.435 227.43 107.728C226.843 108.07 226.061 107.875 225.719 107.338C224.79 105.922 222.835 103.334 222.835 103.334L219.07 98.3537L223.128 104.457C223.372 104.848 223.274 105.385 222.932 105.678C222.59 105.971 222.052 105.922 221.759 105.58L218.044 101.576C217.506 101.039 216.821 100.649 216.088 100.453C213.448 99.8673 211.004 98.5978 209 96.7424L208.706 96.4494H204.355L205.089 90.2484Z" fill="#FCBF9D"/>
<path d="M237.059 71.6452L237.156 53.0422L233.588 55.5324L226.353 73.5983L237.059 71.6452Z" fill="#007AD0"/>
<path opacity="0.15" d="M226.794 73.2566L233.589 55.5325L232.953 55.4348L225.914 73.9401L236.962 74.8679L237.06 71.6453L226.794 73.2566Z" fill="black"/>
<path d="M259.939 56.3137L263.703 61.0499L267.956 79.2623L259.499 74.4773L260.281 61.9776L260.33 61.7335C260.477 61.0499 260.526 60.3663 260.477 59.6828L259.939 56.3137Z" fill="#007AD0"/>
<path opacity="0.2" d="M264.436 61.3428L263.654 61.0498L267.761 78.9692L259.45 74.4283L259.157 78.1392L268.543 79.8969L264.436 61.3428Z" fill="black"/>
<path d="M294.844 110.072L301.346 108.558L294.844 110.072Z" fill="#007AD0"/>
<path opacity="0.15" d="M195.264 84.7308L189.935 79.311L180.793 82.3383L171.065 80.9223C170.918 80.8735 170.772 81.02 170.723 81.1665C170.723 81.3129 170.82 81.4594 170.967 81.5082L187.588 83.9008L194.188 84.9749L195.264 84.7308Z" fill="black"/>
<g opacity="0.15">
<path opacity="0.15" d="M221.81 105.579C222.103 105.921 222.641 105.97 222.983 105.677C223.374 105.384 223.472 104.847 223.178 104.456L219.414 98.8413C218.974 99.0854 218.779 99.7202 218.387 99.9155C217.801 100.208 217.116 100.062 216.725 100.208C216.334 100.355 216.09 100.453 216.09 100.453C216.823 100.599 217.508 100.99 218.045 101.576L221.81 105.579Z" fill="black"/>
<path opacity="0.15" d="M230.413 106.996L228.458 99.3298L224.987 93.8124L228.8 98.0115L231 104.066C231.244 104.701 231.831 105.043 232.467 104.847C233.053 104.701 233.2 104.066 233.102 103.382L231.684 97.4744C231.489 96.4002 230.951 95.3749 230.218 94.5448L227.236 90.834C226.991 90.541 226.698 90.3457 226.405 90.1016C226.405 90.9804 226.502 91.6152 226.209 92.2499C225.965 92.8359 225.476 93.2753 224.938 93.8124C224.449 94.3007 224.547 95.2772 224.107 95.7655C223.863 96.0584 222.885 96.3026 222.592 96.5467C221.956 97.035 221.809 97.8162 221.32 98.158C220.832 98.5486 220.098 98.4998 219.512 98.8416L222.934 103.334C222.934 103.334 224.84 105.921 225.818 107.337C226.209 107.923 226.942 108.07 227.529 107.728C227.627 107.679 227.725 107.582 227.822 107.484C227.822 107.533 227.871 107.63 227.871 107.679C228.116 108.412 228.947 108.802 229.68 108.509C230.267 108.265 230.56 107.63 230.413 106.996Z" fill="black"/>
</g>
<g opacity="0.15">
<path opacity="0.15" d="M227.771 107.777C227.722 107.777 227.624 107.777 227.575 107.728C227.477 107.63 227.428 107.435 227.526 107.337C227.868 106.947 227.673 106.263 227.673 106.263L225.522 101.771L222.393 96.9861C222.295 96.8396 222.344 96.6931 222.491 96.5955C222.638 96.4978 222.784 96.5466 222.882 96.6931L226.06 101.478L228.211 106.068C228.26 106.166 228.553 107.093 227.966 107.728C227.966 107.728 227.868 107.777 227.771 107.777Z" fill="black"/>
</g>
<path opacity="0.4" d="M245.42 187.316C243.66 187.316 242.194 188.683 242.096 190.441L233.296 336.14H228.065L230.168 196.983C230.265 191.612 234.616 187.316 239.994 187.316H245.42Z" fill="black"/>
<path opacity="0.4" d="M277.978 185.558L273.431 341.803H271.867L272.014 337.8H265.952L268.103 185.558H277.978Z" fill="black"/>
<path d="M250.308 133.167L252.116 142.932L255.196 142.591L253.387 132.483L250.308 133.167Z" fill="#001B34"/>
<path d="M252.899 141.321C254.6 141.321 255.979 139.944 255.979 138.245C255.979 136.546 254.6 135.169 252.899 135.169C251.198 135.169 249.819 136.546 249.819 138.245C249.819 139.944 251.198 141.321 252.899 141.321Z" fill="#007AD0"/>
<path d="M252.899 140.833C254.331 140.833 255.49 139.674 255.49 138.245C255.49 136.816 254.331 135.657 252.899 135.657C251.466 135.657 250.308 136.816 250.308 138.245C250.308 139.674 251.466 140.833 252.899 140.833Z" fill="white"/>
<path d="M254.61 138.489L252.85 138.391L251.579 137.464C251.53 137.415 251.482 137.317 251.531 137.268C251.579 137.219 251.677 137.171 251.726 137.219L252.899 138.098L254.561 138.196C254.659 138.196 254.708 138.245 254.708 138.342C254.757 138.391 254.708 138.489 254.61 138.489Z" fill="#001B34"/>
<path d="M186.855 367.779H162.9C160.016 367.779 157.669 365.436 157.669 362.555V100.941C157.669 98.0605 160.016 95.7168 162.9 95.7168H186.855C194.725 95.7168 201.129 102.113 201.129 109.974V353.571C201.129 361.383 194.725 367.779 186.855 367.779Z" fill="#21252B"/>
<path d="M175.17 367.779H60.7273C52.2699 367.779 45.377 360.895 45.377 352.448V111C45.377 102.553 52.2699 95.668 60.7273 95.668H175.17C183.628 95.668 190.52 102.553 190.52 111V352.399C190.52 360.895 183.676 367.779 175.17 367.779Z" fill="#61656D"/>
<path d="M174.975 101.918H145.35C143.346 101.918 141.586 103.334 141.244 105.336C140.852 107.337 139.141 108.753 137.137 108.753H98.8591C96.8548 108.753 95.0948 107.337 94.7526 105.336C94.3615 103.334 92.6505 101.918 90.6462 101.918H61.021C55.7902 101.918 51.5371 106.166 51.5371 111.39V351.959C51.5371 357.184 55.7902 361.432 61.021 361.432H175.073C180.304 361.432 184.557 357.184 184.557 351.959V111.439C184.508 106.166 180.255 101.918 174.975 101.918Z" fill="#007AD0"/>
<path d="M174.975 101.918H145.35C143.346 101.918 141.586 103.334 141.244 105.336C140.852 107.337 139.141 108.753 137.137 108.753H98.8591C96.8548 108.753 95.0948 107.337 94.7526 105.336C94.3615 103.334 92.6505 101.918 90.6462 101.918H61.021C55.7902 101.918 51.5371 106.166 51.5371 111.39V351.959C51.5371 357.184 55.7902 361.432 61.021 361.432H175.073C180.304 361.432 184.557 357.184 184.557 351.959V111.439C184.508 106.166 180.255 101.918 174.975 101.918Z" fill="white"/>
<path d="M163.731 220.756H67.5714C67.0826 220.756 66.6426 220.317 66.6426 219.829V213.872C66.6426 213.384 67.0826 212.944 67.5714 212.944H163.731C164.22 212.944 164.66 213.384 164.66 213.872V219.829C164.66 220.317 164.269 220.756 163.731 220.756Z" fill="#E6EEF4"/>
<path d="M152.34 237.406H78.9621C78.4732 237.406 78.0332 236.967 78.0332 236.478V230.521C78.0332 230.033 78.4732 229.594 78.9621 229.594H152.34C152.829 229.594 153.269 230.033 153.269 230.521V236.478C153.269 236.967 152.878 237.406 152.34 237.406Z" fill="#E6EEF4"/>
<path d="M152.34 259.484H78.9621C78.4732 259.484 78.0332 259.045 78.0332 258.556V252.6C78.0332 252.111 78.4732 251.672 78.9621 251.672H152.34C152.829 251.672 153.269 252.111 153.269 252.6V258.556C153.269 259.045 152.878 259.484 152.34 259.484Z" fill="#E6EEF4"/>
<path opacity="0.5" d="M44.4087 256.362C43.1376 256.118 42.3065 254.897 42.551 253.628C42.5999 253.335 42.4043 252.993 42.111 252.944C41.8177 252.895 41.4755 253.091 41.4266 253.384C41.1822 254.653 39.96 255.483 38.689 255.239C38.3957 255.19 38.0534 255.386 38.0046 255.679C37.9557 255.971 38.1512 256.313 38.4445 256.362C39.7156 256.606 40.5467 257.827 40.3022 259.096C40.2533 259.389 40.4489 259.731 40.7422 259.78C41.0355 259.829 41.3777 259.633 41.4266 259.341C41.671 258.071 42.8932 257.241 44.1643 257.485C44.4576 257.534 44.7998 257.339 44.8486 257.046C44.8975 256.753 44.702 256.46 44.4087 256.362Z" fill="white"/>
<path d="M29.7376 103.011C26.5912 102.406 24.5339 99.3847 25.139 96.2422C25.26 95.517 24.776 94.6709 24.0499 94.55C23.3238 94.4291 22.4767 94.9126 22.3557 95.6378C21.7506 98.7803 18.7253 100.835 15.579 100.231C14.8529 100.11 14.0058 100.593 13.8847 101.318C13.7637 102.044 14.2478 102.89 14.9739 103.011C18.1203 103.615 20.1775 106.637 19.5724 109.779C19.4514 110.504 19.9355 111.35 20.6616 111.471C21.3876 111.592 22.2347 111.109 22.3557 110.383C22.9608 107.241 25.9862 105.186 29.1325 105.791C29.8586 105.911 30.7057 105.428 30.8267 104.703C31.0687 103.857 30.5847 103.132 29.7376 103.011Z" fill="#FFC888"/>
<path d="M38.2874 186.048C35.8546 185.579 34.2639 183.237 34.7318 180.801C34.8253 180.239 34.4511 179.583 33.8897 179.489C33.3283 179.395 32.6733 179.77 32.5797 180.332C32.1119 182.768 29.7727 184.361 27.3399 183.893C26.7785 183.799 26.1235 184.174 26.03 184.736C25.9364 185.298 26.3107 185.954 26.8721 186.048C29.3049 186.516 30.8955 188.858 30.4277 191.294C30.3341 191.857 30.7084 192.513 31.2698 192.606C31.8312 192.7 32.4861 192.325 32.5797 191.763C33.0475 189.327 35.3868 187.734 37.8195 188.203C38.3809 188.296 39.0359 187.922 39.1295 187.359C39.3166 186.703 38.9424 186.141 38.2874 186.048Z" fill="#FFC888"/>
<path d="M154.72 64.7002C152.288 64.2317 150.697 61.8894 151.165 59.4533C151.258 58.8911 150.884 58.2352 150.323 58.1415C149.761 58.0479 149.106 58.4227 149.013 58.9848C148.545 61.4209 146.206 63.0137 143.773 62.5452C143.212 62.4515 142.557 62.8263 142.463 63.3884C142.369 63.9506 142.744 64.6065 143.305 64.7002C145.738 65.1687 147.329 67.511 146.861 69.9471C146.767 70.5092 147.141 71.1651 147.703 71.2588C148.264 71.3525 148.919 70.9777 149.013 70.4155C149.481 67.9795 151.82 66.3867 154.253 66.8551C154.814 66.9488 155.469 66.5741 155.563 66.0119C155.75 65.3561 155.375 64.7939 154.72 64.7002Z" fill="#FFC888"/>
<path d="M144.822 189.034H89.4531V161.383L94.99 150.323H139.285L144.822 161.383V189.034Z" fill="#DCE8F0"/>
<path d="M150.359 155.853H144.822L139.285 161.383H94.9898L89.4529 155.853H83.916V144.793H114.369L117.137 147.558L119.906 144.793H150.359V155.853Z" fill="#DCE8F0"/>
<path d="M144.822 155.853H89.4531V161.383H144.822V155.853Z" fill="#007AD0"/>
<path d="M119.906 144.793H114.369V189.034H119.906V144.793Z" fill="#007AD0"/>
<path fill-rule="evenodd" clip-rule="evenodd" d="M117.58 137.284H117.345V133.464C117.345 128.736 113.426 124.868 108.635 124.868C103.845 124.868 99.9258 128.736 99.9258 133.464C99.9258 138.191 103.845 142.059 108.635 142.059H117.58V137.284ZM108.635 137.284H112.506V133.464C112.506 131.363 110.764 129.644 108.635 129.644C106.506 129.644 104.764 131.363 104.764 133.464C104.764 135.565 106.506 137.284 108.635 137.284Z" fill="#007AD0"/>
<path fill-rule="evenodd" clip-rule="evenodd" d="M116.695 137.284H116.93V133.464C116.93 128.736 120.85 124.868 125.64 124.868C130.43 124.868 134.349 128.736 134.349 133.464C134.349 138.191 130.43 142.059 125.64 142.059H116.695V137.284ZM125.64 137.284H121.769V133.464C121.769 131.363 123.511 129.644 125.64 129.644C127.769 129.644 129.511 131.363 129.511 133.464C129.511 135.565 127.769 137.284 125.64 137.284Z" fill="#007AD0"/>
</g>
<defs>
<clipPath id="clip0">
<rect width="320" height="260" fill="white"/>
</clipPath>
</defs>
</svg>
